<svg width="28" height="26" viewBox="0 0 28 26" fill="none" xmlns="http://www.w3.org/2000/svg">
    <path fill-rule="evenodd" clip-rule="evenodd" d="M14 0C14.5303 0 15.039 0.171186 15.414 0.475899C15.789 0.780611 15.9996 1.19389 15.9996 1.62482V20.45L24.5821 13.473C24.768 13.3219 24.9887 13.2021 25.2316 13.1203C25.4746 13.0386 25.7349 12.9965 25.9978 12.9965C26.2608 12.9965 26.5211 13.0386 26.764 13.1203C27.0069 13.2021 27.2277 13.3219 27.4136 13.473C27.5995 13.6241 27.747 13.8034 27.8476 14.0008C27.9482 14.1982 28 14.4097 28 14.6234C28 14.837 27.9482 15.0486 27.8476 15.2459C27.747 15.4433 27.5995 15.6227 27.4136 15.7737L15.4157 25.5227C15.23 25.674 15.0093 25.794 14.7664 25.8759C14.5235 25.9578 14.263 26 14 26C13.737 26 13.4765 25.9578 13.2336 25.8759C12.9907 25.794 12.77 25.674 12.5843 25.5227L0.586421 15.7737C0.400503 15.6227 0.253024 15.4433 0.152406 15.2459C0.0517877 15.0486 0 14.837 0 14.6234C0 14.4097 0.0517877 14.1982 0.152406 14.0008C0.253024 13.8034 0.400503 13.6241 0.586421 13.473C0.9619 13.1679 1.47116 12.9965 2.00217 12.9965C2.26509 12.9965 2.52545 13.0386 2.76836 13.1203C3.01128 13.2021 3.23199 13.3219 3.41791 13.473L12.0004 20.45V1.62482C12.0004 1.19389 12.211 0.780611 12.586 0.475899C12.961 0.171186 13.4697 0 14 0V0Z" fill="black" />
</svg>
    