<svg width="43" height="42" viewBox="0 0 43 42" fill="none" xmlns="http://www.w3.org/2000/svg">
    <path fill-rule="evenodd" clip-rule="evenodd" d="M21.0884 0.059082C9.48588 0.059082 0.0883789 9.46487 0.0883789 21.0776C0.0883789 30.3783 6.09963 38.234 14.4471 41.0189C15.4971 41.2028 15.8909 40.5723 15.8909 40.0205C15.8909 39.5214 15.8646 37.8661 15.8646 36.1058C10.5884 37.078 9.22338 34.8185 8.80338 33.6362C8.56713 33.0319 7.54338 31.1665 6.65088 30.6673C5.91588 30.2732 4.86588 29.3011 6.62463 29.2748C8.27838 29.2486 9.45963 30.7987 9.85338 31.4292C11.7434 34.6083 14.7621 33.715 15.9696 33.1633C16.1534 31.7971 16.7046 30.8775 17.3084 30.352C12.6359 29.8266 7.75338 28.0137 7.75338 19.9741C7.75338 17.6884 8.56713 15.7967 9.90588 14.3254C9.69588 13.7999 8.96088 11.6455 10.1159 8.7555C10.1159 8.7555 11.8746 8.20376 15.8909 10.9099C17.5709 10.437 19.3559 10.2005 21.1409 10.2005C22.9259 10.2005 24.7109 10.437 26.3909 10.9099C30.4071 8.17749 32.1659 8.7555 32.1659 8.7555C33.3209 11.6455 32.5859 13.7999 32.3759 14.3254C33.7146 15.7967 34.5284 17.6621 34.5284 19.9741C34.5284 28.04 29.6196 29.8266 24.9471 30.352C25.7084 31.0089 26.3646 32.27 26.3646 34.2405C26.3646 37.0517 26.3384 39.3112 26.3384 40.0205C26.3384 40.5723 26.7321 41.2291 27.7821 41.0189C31.9509 39.6102 35.5734 36.9285 38.1398 33.3513C40.7061 29.7741 42.0871 25.4815 42.0884 21.0776C42.0884 9.46487 32.6909 0.059082 21.0884 0.059082Z" fill="black" />
</svg>
    