<svg width="23" height="23" viewBox="0 0 23 23" fill="none" xmlns="http://www.w3.org/2000/svg">
    <path d="M12.5 22.5H7.5V7.5H12.5V10C13.0264 9.33034 13.6944 8.78546 14.4562 8.40445C15.218 8.02344 16.0547 7.81574 16.9062 7.79625C18.3955 7.80452 19.8207 8.40303 20.8693 9.46054C21.9179 10.5181 22.5043 11.9482 22.5 13.4375V22.5H17.5V14.0625C17.4033 13.387 17.0658 12.7691 16.5497 12.3226C16.0337 11.8761 15.3737 11.631 14.6912 11.6325C14.3858 11.6422 14.0855 11.7134 13.8083 11.842C13.5311 11.9706 13.2827 12.1538 13.078 12.3808C12.8734 12.6077 12.7167 12.8737 12.6174 13.1626C12.5181 13.4516 12.4781 13.7577 12.5 14.0625V22.5ZM5 22.5H0V7.5H5V22.5ZM2.5 5C1.83696 5 1.20107 4.73661 0.732233 4.26777C0.263392 3.79893 0 3.16304 0 2.5C0 1.83696 0.263392 1.20107 0.732233 0.732233C1.20107 0.263392 1.83696 0 2.5 0C3.16304 0 3.79893 0.263392 4.26777 0.732233C4.73661 1.20107 5 1.83696 5 2.5C5 3.16304 4.73661 3.79893 4.26777 4.26777C3.79893 4.73661 3.16304 5 2.5 5Z" fill="black" />
</svg>
    