<svg width="11" height="14" viewBox="0 0 11 14" fill="none" xmlns="http://www.w3.org/2000/svg">
    <path d="M10.6832 7.57639C10.7809 7.51217 10.8608 7.42624 10.916 7.32599C10.9712 7.22575 11 7.1142 11 7.00095C11 6.8877 10.9712 6.77615 10.916 6.67591C10.8608 6.57566 10.7809 6.48973 10.6832 6.4255L1.15052 0.12501C1.04057 0.0520811 0.911787 0.00931549 0.778164 0.00135612C0.644541 -0.00660229 0.511189 0.0205507 0.392595 0.0798664C0.274002 0.139182 0.174703 0.228392 0.105489 0.337802C0.0362741 0.447212 -0.000209971 0.572639 9.09017e-07 0.700455L9.09017e-07 13.3014C0.000552638 13.429 0.0375059 13.5539 0.106886 13.6629C0.176267 13.7719 0.27545 13.8607 0.393769 13.9199C0.512088 13.9791 0.645066 14.0063 0.778403 13.9988C0.911741 13.9912 1.04039 13.949 1.15052 13.8769L10.6832 7.57639Z" fill="black" />
</svg>
    