<svg width="58" height="58" viewBox="0 0 58 58" fill="none" xmlns="http://www.w3.org/2000/svg">
    <path d="M29.0839 0.572266C13.3551 0.572266 0.601624 13.3257 0.601624 29.0545C0.601624 44.7833 13.3551 57.5368 29.0839 57.5368C44.8127 57.5368 57.5661 44.7833 57.5661 29.0545C57.5661 13.3257 44.8127 0.572266 29.0839 0.572266ZM38.2453 29.4932L24.3602 39.5955C24.284 39.6502 24.1943 39.6829 24.1008 39.6899C24.0074 39.6969 23.9138 39.678 23.8303 39.6353C23.7469 39.5926 23.6768 39.5277 23.6278 39.4478C23.5789 39.3679 23.5529 39.276 23.5527 39.1823V18.9904C23.5524 18.8964 23.5781 18.8043 23.627 18.7241C23.6759 18.6439 23.746 18.5787 23.8296 18.5359C23.9132 18.4932 24.0071 18.4743 24.1007 18.4816C24.1943 18.4889 24.2841 18.5219 24.3602 18.5771L38.2453 28.6731C38.3109 28.7195 38.3644 28.7809 38.4013 28.8523C38.4382 28.9236 38.4575 29.0028 38.4575 29.0831C38.4575 29.1635 38.4382 29.2427 38.4013 29.314C38.3644 29.3854 38.3109 29.4468 38.2453 29.4932Z" fill="black" />
</svg>
